<mxfile host="app.diagrams.net" agent="Mozilla/5.0 (Windows NT 10.0; Win64; x64) AppleWebKit/537.36 (KHTML, like Gecko) Chrome/129.0.0.0 Safari/537.36" version="24.7.17">
  <diagram name="PÃ¡gina-1" id="EovD_wo6Bufkt5Pa2g3K">
    <mxGraphModel grid="1" page="1" gridSize="10" guides="1" tooltips="1" connect="1" arrows="1" fold="1" pageScale="1" pageWidth="827" pageHeight="1169" math="0" shadow="0">
      <root>
        <mxCell id="0" />
        <mxCell id="1" parent="0" />
        <mxCell id="DbclZV8jWAT2bgjYsTzq-11" style="rounded=0;orthogonalLoop=1;jettySize=auto;html=1;exitX=0.5;exitY=0.5;exitDx=0;exitDy=0;exitPerimeter=0;entryX=0;entryY=0.5;entryDx=0;entryDy=0;" edge="1" parent="1" source="DbclZV8jWAT2bgjYsTzq-1" target="DbclZV8jWAT2bgjYsTzq-4">
          <mxGeometry relative="1" as="geometry" />
        </mxCell>
        <mxCell id="DbclZV8jWAT2bgjYsTzq-12" style="edgeStyle=orthogonalEdgeStyle;rounded=0;orthogonalLoop=1;jettySize=auto;html=1;exitX=0.5;exitY=0.5;exitDx=0;exitDy=0;exitPerimeter=0;" edge="1" parent="1" source="DbclZV8jWAT2bgjYsTzq-1" target="DbclZV8jWAT2bgjYsTzq-5">
          <mxGeometry relative="1" as="geometry" />
        </mxCell>
        <mxCell id="DbclZV8jWAT2bgjYsTzq-13" style="rounded=0;orthogonalLoop=1;jettySize=auto;html=1;exitX=0.5;exitY=0.5;exitDx=0;exitDy=0;exitPerimeter=0;entryX=0;entryY=0.5;entryDx=0;entryDy=0;" edge="1" parent="1" source="DbclZV8jWAT2bgjYsTzq-1" target="DbclZV8jWAT2bgjYsTzq-6">
          <mxGeometry relative="1" as="geometry" />
        </mxCell>
        <mxCell id="DbclZV8jWAT2bgjYsTzq-1" value="Actor" style="shape=umlActor;verticalLabelPosition=bottom;verticalAlign=top;html=1;outlineConnect=0;fillColor=#B9E0A5;" vertex="1" parent="1">
          <mxGeometry x="130" y="230" width="30" height="60" as="geometry" />
        </mxCell>
        <mxCell id="DbclZV8jWAT2bgjYsTzq-2" value="" style="swimlane;startSize=0;" vertex="1" parent="1">
          <mxGeometry x="180" y="-20" width="540" height="500" as="geometry" />
        </mxCell>
        <mxCell id="DbclZV8jWAT2bgjYsTzq-4" value="Ingresar datos contables" style="ellipse;whiteSpace=wrap;html=1;fillColor=#B9E0A5;" vertex="1" parent="DbclZV8jWAT2bgjYsTzq-2">
          <mxGeometry x="50" y="90" width="120" height="80" as="geometry" />
        </mxCell>
        <mxCell id="DbclZV8jWAT2bgjYsTzq-14" style="rounded=0;orthogonalLoop=1;jettySize=auto;html=1;exitX=1;exitY=0.5;exitDx=0;exitDy=0;entryX=0;entryY=0.5;entryDx=0;entryDy=0;" edge="1" parent="DbclZV8jWAT2bgjYsTzq-2" source="DbclZV8jWAT2bgjYsTzq-5" target="DbclZV8jWAT2bgjYsTzq-8">
          <mxGeometry relative="1" as="geometry" />
        </mxCell>
        <mxCell id="DbclZV8jWAT2bgjYsTzq-5" value="Emitir facturas" style="ellipse;whiteSpace=wrap;html=1;fillColor=#B9E0A5;" vertex="1" parent="DbclZV8jWAT2bgjYsTzq-2">
          <mxGeometry x="50" y="240" width="120" height="80" as="geometry" />
        </mxCell>
        <mxCell id="DbclZV8jWAT2bgjYsTzq-17" style="edgeStyle=orthogonalEdgeStyle;rounded=0;orthogonalLoop=1;jettySize=auto;html=1;exitX=1;exitY=0.5;exitDx=0;exitDy=0;entryX=0;entryY=0.5;entryDx=0;entryDy=0;" edge="1" parent="DbclZV8jWAT2bgjYsTzq-2" source="DbclZV8jWAT2bgjYsTzq-6" target="DbclZV8jWAT2bgjYsTzq-16">
          <mxGeometry relative="1" as="geometry" />
        </mxCell>
        <mxCell id="DbclZV8jWAT2bgjYsTzq-6" value="Registrar facturas de pagos de los clientes" style="ellipse;whiteSpace=wrap;html=1;fillColor=#B9E0A5;" vertex="1" parent="DbclZV8jWAT2bgjYsTzq-2">
          <mxGeometry x="50" y="390" width="120" height="80" as="geometry" />
        </mxCell>
        <mxCell id="DbclZV8jWAT2bgjYsTzq-18" style="rounded=0;orthogonalLoop=1;jettySize=auto;html=1;exitX=1;exitY=0.5;exitDx=0;exitDy=0;" edge="1" parent="DbclZV8jWAT2bgjYsTzq-2" source="DbclZV8jWAT2bgjYsTzq-8" target="DbclZV8jWAT2bgjYsTzq-9">
          <mxGeometry relative="1" as="geometry" />
        </mxCell>
        <mxCell id="DbclZV8jWAT2bgjYsTzq-8" value="Seleccionar tipo de impuesto aplicado" style="ellipse;whiteSpace=wrap;html=1;fillColor=#B9E0A5;" vertex="1" parent="DbclZV8jWAT2bgjYsTzq-2">
          <mxGeometry x="230" y="190" width="120" height="80" as="geometry" />
        </mxCell>
        <mxCell id="DbclZV8jWAT2bgjYsTzq-9" value="Factura emitida" style="ellipse;whiteSpace=wrap;html=1;fillColor=#E6D0DE;" vertex="1" parent="DbclZV8jWAT2bgjYsTzq-2">
          <mxGeometry x="360" y="300" width="120" height="80" as="geometry" />
        </mxCell>
        <mxCell id="DbclZV8jWAT2bgjYsTzq-10" value="Datos ingresados" style="ellipse;whiteSpace=wrap;html=1;fillColor=#E6D0DE;" vertex="1" parent="DbclZV8jWAT2bgjYsTzq-2">
          <mxGeometry x="370" y="90" width="120" height="80" as="geometry" />
        </mxCell>
        <mxCell id="DbclZV8jWAT2bgjYsTzq-15" style="edgeStyle=orthogonalEdgeStyle;rounded=0;orthogonalLoop=1;jettySize=auto;html=1;exitX=1;exitY=0.5;exitDx=0;exitDy=0;" edge="1" parent="DbclZV8jWAT2bgjYsTzq-2" source="DbclZV8jWAT2bgjYsTzq-4">
          <mxGeometry relative="1" as="geometry">
            <mxPoint x="290" y="190" as="targetPoint" />
          </mxGeometry>
        </mxCell>
        <mxCell id="DbclZV8jWAT2bgjYsTzq-16" value="Factura registrada" style="ellipse;whiteSpace=wrap;html=1;fillColor=#E6D0DE;" vertex="1" parent="DbclZV8jWAT2bgjYsTzq-2">
          <mxGeometry x="400" y="390" width="120" height="80" as="geometry" />
        </mxCell>
        <mxCell id="DbclZV8jWAT2bgjYsTzq-19" style="rounded=0;orthogonalLoop=1;jettySize=auto;html=1;exitX=1;exitY=0.5;exitDx=0;exitDy=0;entryX=0.042;entryY=0.75;entryDx=0;entryDy=0;entryPerimeter=0;" edge="1" parent="DbclZV8jWAT2bgjYsTzq-2" source="DbclZV8jWAT2bgjYsTzq-8" target="DbclZV8jWAT2bgjYsTzq-10">
          <mxGeometry relative="1" as="geometry" />
        </mxCell>
        <mxCell id="DbclZV8jWAT2bgjYsTzq-21" style="rounded=0;orthogonalLoop=1;jettySize=auto;html=1;exitX=0.5;exitY=0.5;exitDx=0;exitDy=0;exitPerimeter=0;entryX=1;entryY=0.5;entryDx=0;entryDy=0;" edge="1" parent="1" source="DbclZV8jWAT2bgjYsTzq-3" target="DbclZV8jWAT2bgjYsTzq-10">
          <mxGeometry relative="1" as="geometry" />
        </mxCell>
        <mxCell id="DbclZV8jWAT2bgjYsTzq-22" style="rounded=0;orthogonalLoop=1;jettySize=auto;html=1;exitX=0.5;exitY=0.5;exitDx=0;exitDy=0;exitPerimeter=0;entryX=1;entryY=0.5;entryDx=0;entryDy=0;" edge="1" parent="1" source="DbclZV8jWAT2bgjYsTzq-3" target="DbclZV8jWAT2bgjYsTzq-9">
          <mxGeometry relative="1" as="geometry" />
        </mxCell>
        <mxCell id="DbclZV8jWAT2bgjYsTzq-3" value="Actor" style="shape=umlActor;verticalLabelPosition=bottom;verticalAlign=top;html=1;outlineConnect=0;fillColor=#E6D0DE;" vertex="1" parent="1">
          <mxGeometry x="780" y="220" width="30" height="60" as="geometry" />
        </mxCell>
        <mxCell id="DbclZV8jWAT2bgjYsTzq-20" value="&lt;font style=&quot;font-size: 24px;&quot;&gt;Sistema contable&lt;/font&gt;" style="rounded=0;whiteSpace=wrap;html=1;" vertex="1" parent="1">
          <mxGeometry x="180" y="-80" width="540" height="60" as="geometry" />
        </mxCell>
        <mxCell id="DbclZV8jWAT2bgjYsTzq-23" style="rounded=0;orthogonalLoop=1;jettySize=auto;html=1;exitX=0.5;exitY=0.5;exitDx=0;exitDy=0;exitPerimeter=0;entryX=1;entryY=0.3;entryDx=0;entryDy=0;entryPerimeter=0;" edge="1" parent="1" source="DbclZV8jWAT2bgjYsTzq-3" target="DbclZV8jWAT2bgjYsTzq-16">
          <mxGeometry relative="1" as="geometry" />
        </mxCell>
      </root>
    </mxGraphModel>
  </diagram>
</mxfile>
